<svg width="288" height="288" xmlns="http://www.w3.org/2000/svg" xmlns:xlink="http://www.w3.org/1999/xlink" xmlns:svgjs="http://svgjs.com/svgjs"><svg xmlns="http://www.w3.org/2000/svg" width="288" height="288" fill-rule="evenodd" clip-rule="evenodd" image-rendering="optimizeQuality" shape-rendering="geometricPrecision" text-rendering="geometricPrecision" viewBox="0 0 6.827 6.827" transform="translate(11.993 11.993) scale(.9167)"><circle cx="3.413" cy="3.413" r="3.413" fill="#5e72e4" class="colorf57c00 svgShape"/><path fill="#fff" d="M5.4 1.84a.12.12 0 01.12.12v2.906a.12.12 0 01-.12.12H1.427a.12.12 0 01-.12-.12V1.96a.12.12 0 01.12-.12H5.4z" class="colorfffffe svgShape"/><path fill="#767fad" d="M3.09 2.574c0 .037-.03.066-.067.066H1.747a.067.067 0 010-.133h1.276c.037 0 .067.03.067.067zm2.31-.626H1.427a.013.013 0 00-.01.003.013.013 0 00-.004.01v2.905c0 .003.002.007.004.01a.013.013 0 00.01.003H5.4a.013.013 0 00.01-.004.013.013 0 00.003-.01V1.962a.013.013 0 00-.004-.01.013.013 0 00-.009-.003zM3.09 2.994c0 .036-.03.066-.067.066H1.747a.067.067 0 010-.133h1.276c.037 0 .067.03.067.067zm-.067.353a.067.067 0 110 .133H1.747a.067.067 0 110-.133h1.276zm0 .42a.067.067 0 010 .133H1.747a.067.067 0 010-.134h1.276zm0 .42a.067.067 0 010 .132H1.747a.067.067 0 010-.133h1.276zm.946-.711a.688.688 0 010-.976.688.688 0 01.976 0 .688.688 0 01-.052 1.023v.939a.066.066 0 01-.113.048l-.318-.31-.326.304a.066.066 0 01-.115-.046v-.935a.694.694 0 01-.052-.047z" class="color8d4c09 svgShape"/><path fill="#767fad" d="M4.127 3.436zm.33-1.004a.555.555 0 00-.394.95.56.56 0 00.412.162.554.554 0 00.31-.107.56.56 0 00.228-.45.555.555 0 00-.556-.555zm0 .222a.333.333 0 01.236.57.333.333 0 01-.57-.236.333.333 0 01.334-.334z" class="color8d4c09 svgShape"/><path fill="#767fad" d="M4.315 2.846a.2.2 0 00.142.343.2.2 0 00.142-.343.2.2 0 00-.284 0zm.142.832a.687.687 0 01-.303-.07v.697l.263-.246a.067.067 0 01.094.003l.001.002.248.24v-.696a.687.687 0 01-.303.07z" class="color8d4c09 svgShape"/></svg></svg>
