<svg width="288" height="288" xmlns="http://www.w3.org/2000/svg" xmlns:xlink="http://www.w3.org/1999/xlink" xmlns:svgjs="http://svgjs.com/svgjs"><svg xmlns="http://www.w3.org/2000/svg" width="288" height="288" viewBox="0 0 16 16" transform="translate(11.995 11.995) scale(.9167)"><g fill="#17d778" class="color000 svgShape"><path d="M8 .802a6 6 0 00-2 4.463 6 6 0 00.121 1.19c-.541.138-.926.854-1.059 1.347-.175.655.054 2.04.311 3 .615-.61.987-1.01 1.291-1.348A2.75 2.75 0 008 9.802a2.75 2.75 0 001.334-.348c.304.338.678.737 1.293 1.348.257-.96.486-2.345.31-3-.132-.496-.52-1.214-1.066-1.348A6 6 0 0010 5.264 6 6 0 008 .803zm0 3.3a.85.85 0 01.85.85.85.85 0 01-.85.85.85.85 0 01-.85-.85.85.85 0 01.85-.85zm-.006 6.346a.35.35 0 00-.344.354v2a.35.35 0 10.7 0v-2a.35.35 0 00-.356-.354zm1.65 1.354a.35.35 0 00-.343.355v1.377a.35.35 0 10.699 0v-1.377a.35.35 0 00-.356-.355zm-3.298.473A.35.35 0 006 12.63v2.201a.35.35 0 10.7 0V12.63a.35.35 0 00-.354-.355zm1.648 1.52a.35.35 0 00-.344.353v.34a.35.35 0 10.7 0v-.34a.35.35 0 00-.356-.354z" paint-order="markers stroke fill" class="color000 svgShape"/></g></svg></svg>
