<?xml version="1.0" encoding="iso-8859-1"?>
<!-- Generator: Adobe Illustrator 18.1.1, SVG Export Plug-In . SVG Version: 6.00 Build 0)  -->
<svg version="1.1" id="Capa_1" xmlns="http://www.w3.org/2000/svg" xmlns:xlink="http://www.w3.org/1999/xlink" x="0px" y="0px"
	 viewBox="0 0 20.769 20.769" style="enable-background:new 0 0 20.769 20.769;" xml:space="preserve">
<g>
	<g>
		<path style="fill:#030104;" d="M13.646,18.182c0-1.426,1.154-2.586,2.583-2.586c0.3,0,0.579,0.061,0.844,0.152
			c0.206-0.836,0.208-1.438,0.208-1.438c-0.058-4.199-5.451-5.953-5.451-5.953C7.27,7.118,7.91,5.062,7.91,5.062
			c-0.012-1.354,2.56-1.136,2.56-1.136c1.839-0.019,1.88,0.92,1.88,0.92c0.026,2.498,2.561,2.475,2.561,2.475
			c2.638-0.024,2.264-3.009,2.264-3.009c-0.048-4.583-6.745-4.309-6.745-4.309C3.417-0.031,3.371,5.975,3.371,5.975
			c0.049,4.93,6.102,6.223,6.102,6.223c3.484,1.46,3.188,2.957,3.188,2.957c0.012,1.665-2.633,1.691-2.633,1.691
			c-2.616,0.059-2.714-1.468-2.714-1.468c-0.06-2.394-2.244-2.304-2.244-2.304c-2.429-0.01-2.334,2.802-2.334,2.802
			c0.085,5.17,7.478,4.89,7.478,4.89c1.714-0.017,3.011-0.411,3.991-0.994C13.858,19.332,13.646,18.784,13.646,18.182z"/>
		<circle style="fill:#030104;" cx="16.231" cy="18.182" r="1.803"/>
	</g>
</g>
<g>
</g>
<g>
</g>
<g>
</g>
<g>
</g>
<g>
</g>
<g>
</g>
<g>
</g>
<g>
</g>
<g>
</g>
<g>
</g>
<g>
</g>
<g>
</g>
<g>
</g>
<g>
</g>
<g>
</g>
</svg>
