<svg width="366" height="445.204" viewBox="0 0 366 445.204" xmlns="http://www.w3.org/2000/svg"><g id="svgGroup" stroke-linecap="round" fill-rule="evenodd" font-size="9pt" stroke="#000" stroke-width="0.25mm" fill="#000" style="stroke:#000;stroke-width:0.25mm;fill:#000"><path d="M 16.8 351.601 L 22.2 339.001 A 167.513 167.513 0 0 1 28.6 324.98 Q 34.913 312.78 42 305.101 Q 52.785 293.417 72.547 293.401 A 66.625 66.625 0 0 1 72.6 293.401 Q 88.8 293.401 98.1 303.901 A 36.741 36.741 0 0 1 107.173 325.251 A 48.615 48.615 0 0 1 107.4 330.001 A 45.97 45.97 0 0 1 104.235 346.539 A 56.449 56.449 0 0 1 102 351.601 A 1129.713 1129.713 0 0 1 139.679 349.879 Q 159.472 349.286 181.47 349.212 A 1879.613 1879.613 0 0 1 187.8 349.201 Q 209.391 349.201 222.892 349.553 A 485.295 485.295 0 0 1 230.4 349.801 Q 188.138 296.514 162.405 263.274 A 3272.504 3272.504 0 0 1 148.2 244.801 L 106.8 192.601 Q 97.2 180.601 90.6 174.001 Q 76.031 157.07 66.114 143.369 A 235.607 235.607 0 0 1 57 129.901 Q 45.6 111.601 45.6 92.401 A 40.69 40.69 0 0 1 48.025 78.089 A 35.835 35.835 0 0 1 58.5 63.301 A 85.206 85.206 0 0 1 83.157 48.62 A 100.598 100.598 0 0 1 89.1 46.501 A 283.462 283.462 0 0 1 103.517 42.312 Q 116.82 38.798 133.8 35.401 L 159 30.001 Q 206.4 18.001 256.8 8.401 Q 260.231 7.911 269.267 6.22 A 1383.82 1383.82 0 0 0 273.6 5.401 A 186.904 186.904 0 0 1 289.383 1.905 Q 296.914 0.596 303.646 0.187 A 98.22 98.22 0 0 1 309.6 0.001 A 58.116 58.116 0 0 1 321.038 1.056 Q 327.895 2.434 333.153 5.611 A 30.561 30.561 0 0 1 339.6 10.801 A 48.043 48.043 0 0 1 345.637 18.529 Q 348.837 23.705 349.887 29 A 26.681 26.681 0 0 1 350.4 34.201 Q 350.4 45.601 343.5 57.001 A 155.014 155.014 0 0 1 338.543 64.617 Q 332.03 74.069 321.6 87.001 A 439.231 439.231 0 0 0 313.54 96.942 Q 302.8 110.626 299.057 118.267 A 37.848 37.848 0 0 0 298.8 118.801 Q 291 135.601 282.3 147.001 A 37.798 37.798 0 0 1 276.949 152.765 Q 270.394 158.401 262.8 158.401 A 22.083 22.083 0 0 1 253.659 156.341 Q 250.682 155 247.705 152.783 A 39.998 39.998 0 0 1 247.2 152.401 A 21.235 21.235 0 0 1 238.901 136.848 A 28.929 28.929 0 0 1 238.8 134.401 A 40.879 40.879 0 0 1 240.139 124.249 A 54.466 54.466 0 0 1 242.7 116.701 Q 246.6 107.401 250.5 99.601 A 454.308 454.308 0 0 1 251.868 96.887 Q 254.461 91.786 255.478 90.189 A 10.659 10.659 0 0 1 255.6 90.001 Q 232.172 94.136 191.51 104.249 A 2589.719 2589.719 0 0 0 165 111.001 Q 157.8 113.401 135.6 118.801 L 207.6 201.601 Q 283.081 287.375 314.92 324.302 A 2503.028 2503.028 0 0 1 327 338.401 Q 329.995 341.995 341.062 353.96 A 2035.85 2035.85 0 0 0 341.1 354.001 A 142.301 142.301 0 0 1 352.259 367.596 A 113.998 113.998 0 0 1 359.1 378.301 A 59.6 59.6 0 0 1 363.694 388.519 Q 365.928 395.195 365.998 401.589 A 37.754 37.754 0 0 1 366 402.001 A 38.495 38.495 0 0 1 359.798 422.793 A 52.235 52.235 0 0 1 355.2 429.001 Q 342 445.201 322.8 445.201 Q 314.4 445.201 304.2 442.801 Q 295.868 440.841 292.34 440.082 A 95.946 95.946 0 0 0 291 439.801 A 447.977 447.977 0 0 0 246.539 433.239 Q 223.663 430.961 198.01 430.391 A 784.537 784.537 0 0 0 180.6 430.201 Q 132 430.201 77.4 435.001 Q 72.6 435.601 63.6 436.201 A 291.844 291.844 0 0 1 55.304 436.642 Q 51.113 436.801 47.4 436.801 A 110.121 110.121 0 0 1 33.869 436.023 Q 27.086 435.181 21.451 433.429 A 48.806 48.806 0 0 1 12.9 429.901 A 23.113 23.113 0 0 1 1.137 414.414 Q 0.071 410.204 0.004 405.088 A 52.707 52.707 0 0 1 0 404.401 A 63.47 63.47 0 0 1 1.329 391.777 A 84.384 84.384 0 0 1 4.2 381.301 A 186.67 186.67 0 0 1 7.851 371.581 Q 11.484 362.612 16.8 351.601 Z" vector-effect="non-scaling-stroke"/></g></svg>